<svg id="Layer_1" data-name="Layer 1" xmlns="http://www.w3.org/2000/svg" xmlns:xlink="http://www.w3.org/1999/xlink" viewBox="0 0 612 792"><defs><style>.cls-1{fill:none;}.cls-2{isolation:isolate;}.cls-3{clip-path:url(#clip-path);}.cls-4{fill:#2e6a3c;}.cls-5{clip-path:url(#clip-path-2);}.cls-6{fill:#2d673a;}.cls-7{clip-path:url(#clip-path-3);}.cls-8{fill:#327241;}.cls-9{fill:#306e3f;}.cls-10{clip-path:url(#clip-path-4);}.cls-11{fill:#316f3f;}.cls-12{fill:#2e693c;}.cls-13{fill:#54c16e;}.cls-14{fill:#0c3a40;}.cls-15{fill:#0d3d44;}.cls-16{clip-path:url(#clip-path-5);}.cls-17{fill:#0c3c43;}.cls-18{fill:#0c383e;}.cls-19{fill:#166a75;}.cls-20{clip-path:url(#clip-path-6);}.cls-21{clip-path:url(#clip-path-7);}.cls-22{fill:#2d673b;}.cls-23{clip-path:url(#clip-path-8);}.cls-24{fill:#317140;}</style><clipPath id="clip-path"><path class="cls-1" d="M398.86,363.27H384.32a33.15,33.15,0,0,0,2.93-10.51h14.54A32.89,32.89,0,0,1,398.86,363.27Z"/></clipPath><clipPath id="clip-path-2"><path class="cls-1" d="M401.79,352.76H387.25a132.55,132.55,0,0,0,0-28.9,31.92,31.92,0,0,0-3.2-10.81H398.6a31.92,31.92,0,0,1,3.19,10.81,130.9,130.9,0,0,1,0,28.9Z"/></clipPath><clipPath id="clip-path-3"><path class="cls-1" d="M380.76,372.09H366.22q7.18,0,11.44-2.28a16.44,16.44,0,0,0,6.66-6.54h14.54a16.32,16.32,0,0,1-6.66,6.54Q388,372.09,380.76,372.09Z"/></clipPath><clipPath id="clip-path-4"><path class="cls-1" d="M398.6,313.05H384.05q-5.06-8.52-19.16-8.53h14.54Q393.54,304.52,398.6,313.05Z"/></clipPath><clipPath id="clip-path-5"><path class="cls-1" d="M291.48,492H276.93Q229,492,229,428.39q0-19.17,5.19-32.56a43.94,43.94,0,0,1,18.24-21.61H267a43.94,43.94,0,0,0-18.24,21.61q-5.17,13.4-5.19,32.56Q243.56,492,291.48,492Z"/></clipPath><clipPath id="clip-path-6"><path class="cls-1" d="M207.4,457.61H192.86a19.84,19.84,0,0,0,4.79-7.76c1.25-3.35,1.86-7.76,1.86-13.24q.75-65.19.29-130.3h14.54q.45,65.1-.28,130.3,0,8.22-1.86,13.24A19.85,19.85,0,0,1,207.4,457.61Z"/></clipPath><clipPath id="clip-path-7"><path class="cls-1" d="M195.69,462.78H181.15a18,18,0,0,0,5.59-1.06,15.32,15.32,0,0,0,6.12-4.11H207.4a15.32,15.32,0,0,1-6.12,4.11A18,18,0,0,1,195.69,462.78Z"/></clipPath><clipPath id="clip-path-8"><path class="cls-1" d="M194.9,493.82H180.35q-13,0-21.69-6.54A75.12,75.12,0,0,1,145,474.35h14.54a75.45,75.45,0,0,0,13.71,12.93Q181.84,493.82,194.9,493.82Z"/></clipPath></defs><title>Artboard 1</title><g class="cls-2"><g class="cls-2"><g class="cls-3"><g class="cls-2"><path class="cls-4" d="M398.86,363.27H384.32a33.15,33.15,0,0,0,2.93-10.51h14.54a32.89,32.89,0,0,1-2.93,10.51"/></g></g></g><g class="cls-2"><g class="cls-5"><g class="cls-2"><path class="cls-4" d="M401.79,352.76H387.25a132.55,132.55,0,0,0,0-28.9,31.92,31.92,0,0,0-3.2-10.81H398.6a31.92,31.92,0,0,1,3.19,10.81,130.9,130.9,0,0,1,0,28.9"/></g></g></g><polygon class="cls-6" points="406.85 492 392.3 492 367.02 399.48 381.56 399.48 406.85 492"/><g class="cls-2"><g class="cls-7"><g class="cls-2"><path class="cls-8" d="M380.76,372.09H366.22a27.27,27.27,0,0,0,9.72-1.5h14.55a27.33,27.33,0,0,1-9.73,1.5"/><path class="cls-9" d="M390.49,370.59H375.94a14.24,14.24,0,0,0,1.72-.78,16.21,16.21,0,0,0,5-4.16h14.54a16.21,16.21,0,0,1-5.05,4.16,14.09,14.09,0,0,1-1.71.78"/><path class="cls-4" d="M397.25,365.65H382.71a17.41,17.41,0,0,0,1.61-2.38h14.54a17.41,17.41,0,0,1-1.61,2.38"/></g></g></g><g class="cls-2"><g class="cls-10"><g class="cls-2"><path class="cls-4" d="M398.6,313.05H384.05q-5.06-8.52-19.16-8.53h14.54q14.11,0,19.17,8.53"/></g></g></g><polygon class="cls-11" points="365.32 372.09 350.78 372.09 366.21 372.09 380.76 372.09 365.32 372.09"/><rect class="cls-12" x="323.63" y="275.31" width="14.54" height="216.69"/><polygon class="cls-11" points="338.17 275.31 323.63 275.31 367.29 275.31 381.83 275.31 338.17 275.31"/><path class="cls-13" d="M406.32,393.09,435.59,492H406.85l-25.29-92.52H365.32V492H338.17V275.31h43.66q47.91,0,47.91,63.61,0,19.17-5.19,32.56A44,44,0,0,1,406.32,393.09Zm-4.53-40.33a130.9,130.9,0,0,0,0-28.9,31.92,31.92,0,0,0-3.19-10.81q-5.06-8.52-19.17-8.53H365.32v67.57h15.44q7.19,0,11.44-2.28a16.32,16.32,0,0,0,6.66-6.54,32.89,32.89,0,0,0,2.93-10.51"/></g><g class="cls-2"><rect class="cls-14" x="293.43" y="395.22" width="14.54" height="67.56"/><rect class="cls-14" x="293.43" y="275.31" width="14.54" height="92.52"/><polygon class="cls-15" points="307.98 275.31 293.43 275.31 320.59 275.31 335.13 275.31 307.98 275.31"/><polygon class="cls-15" points="293.87 462.78 279.33 462.78 293.43 462.78 307.98 462.78 293.87 462.78"/><polygon class="cls-15" points="291.75 367.83 277.2 367.83 293.43 367.83 307.98 367.83 291.75 367.83"/><g class="cls-2"><g class="cls-16"><g class="cls-2"><path class="cls-14" d="M291.48,492H276.93Q229,492,229,428.39q0-19.17,5.19-32.56a42.56,42.56,0,0,1,6.57-11.39h14.54a42.56,42.56,0,0,0-6.57,11.39q-5.17,13.4-5.19,32.56,0,63.62,47.92,63.61"/><path class="cls-17" d="M255.32,384.44H240.78a47,47,0,0,1,11.67-10.22H267a47.35,47.35,0,0,0-11.67,10.22"/></g></g></g><polygon class="cls-15" points="237.71 275.31 223.16 275.31 251.91 275.31 266.45 275.31 237.71 275.31"/><polygon class="cls-18" points="266.99 374.22 252.44 374.22 223.16 275.31 237.71 275.31 266.99 374.22"/><path class="cls-19" d="M308,275.31h27.15V492H291.48q-47.91,0-47.92-63.61,0-19.17,5.19-32.56A43.94,43.94,0,0,1,267,374.22l-29.28-98.91h28.74l25.3,92.52H308Zm0,187.47V395.22H292.54q-7.19,0-11.44,2.28a16.28,16.28,0,0,0-6.66,6.55,32.5,32.5,0,0,0-2.92,10.5,129.38,129.38,0,0,0,0,28.91,31.83,31.83,0,0,0,3.18,10.81q5.07,8.52,19.17,8.51H308"/></g><g class="cls-2"><g class="cls-2"><g class="cls-20"><g class="cls-2"><path class="cls-9" d="M207.4,457.61H192.86a14.34,14.34,0,0,0,1.39-1.5h14.54a13.34,13.34,0,0,1-1.39,1.5"/><path class="cls-4" d="M208.79,456.11H194.25a22.13,22.13,0,0,0,3.4-6.26c1.25-3.35,1.86-7.76,1.86-13.24q.75-65.19.29-130.3h14.54q.45,65.1-.28,130.3,0,8.22-1.86,13.24a22.14,22.14,0,0,1-3.41,6.26"/></g></g></g><g class="cls-2"><g class="cls-21"><g class="cls-2"><path class="cls-8" d="M195.69,462.78H181.15a18,18,0,0,0,5.59-1.06l.49-.18h14.55l-.5.18a18,18,0,0,1-5.59,1.06"/><path class="cls-9" d="M201.78,461.54H187.23a15.7,15.7,0,0,0,5.63-3.93H207.4a15.76,15.76,0,0,1-5.62,3.93"/></g></g></g><polygon class="cls-22" points="183.85 306.31 169.31 306.31 164.06 275.31 178.6 275.31 183.85 306.31"/><polygon class="cls-11" points="178.6 275.31 164.06 275.31 220.73 275.31 235.28 275.31 178.6 275.31"/><path class="cls-13" d="M235.28,275.31l9.08,31h-3.15V440.88q0,22.2-12.24,37.12a46,46,0,0,1-14.51,11.57,42.64,42.64,0,0,1-19.56,4.25q-13.05,0-21.7-6.54a75.45,75.45,0,0,1-13.71-12.93l21.3-19.48a27.74,27.74,0,0,0,6.79,5.63,15.59,15.59,0,0,0,8.11,2.28,18,18,0,0,0,5.59-1.06,15.32,15.32,0,0,0,6.12-4.11,19.85,19.85,0,0,0,4.8-7.76q1.86-5,1.86-13.24.74-65.19.28-130.3H183.85l-5.25-31Z"/><g class="cls-2"><g class="cls-23"><g class="cls-2"><path class="cls-4" d="M194.9,493.82H180.35q-13,0-21.69-6.54A75.12,75.12,0,0,1,145,474.35h14.54a75.45,75.45,0,0,0,13.71,12.93q8.64,6.54,21.7,6.54"/></g></g></g><polygon class="cls-24" points="159.49 474.35 144.95 474.35 166.25 454.87 180.79 454.87 159.49 474.35"/></g></svg>