<?xml version="1.0" encoding="UTF-8" standalone="no"?><!DOCTYPE svg PUBLIC "-//W3C//DTD SVG 1.1//EN" "http://www.w3.org/Graphics/SVG/1.1/DTD/svg11.dtd"><svg width="100%" height="100%" viewBox="0 0 751 733" version="1.1" xmlns="http://www.w3.org/2000/svg" xmlns:xlink="http://www.w3.org/1999/xlink" xml:space="preserve" xmlns:serif="http://www.serif.com/" style="fill-rule:evenodd;clip-rule:evenodd;stroke-linecap:round;stroke-miterlimit:3;"><path d="M618.953,543.953l127,-31l0,145l-73,-40l-76,-6l22,-68Z" style="fill:#f46956;stroke:#000;stroke-width:2.5px;"/><path d="M746.953,658.953l-75,-30l-81,-2l6,-15l77,7l73,40Z" style="fill:#953d3d;stroke:#000;stroke-width:2.5px;"/><path d="M56.953,553.953l50,3l47,-29l96,19l-96,-12l-36,28l-61,-9Z" style="fill:#953d3d;stroke:#000;stroke-width:2.5px;"/><path d="M276.953,553.953l72,36l127,21l-14,-15l-115,-13l-70,-29Z" style="fill:#953d3d;stroke:#000;stroke-width:2.5px;"/><path d="M3.953,551.953l114,-42l34,2l107,12l-20,-26l-45,-13l54,7l41,32l67,19l42,7l21,0l42,45l-114,-13l-69,-28l-59,16l-16,-13l19,7l28,-18l-96,-18l-46,28l-51,-3l42,-2l32,-22l-127,23Z" style="fill:#f46956;stroke:#000;stroke-width:2.5px;"/><g id="Owl-Body" serif:id="Owl Body"><path d="M492.953,204.953l100,110l26,60l-34,-46l33,56l1,77l-44,-53l34,69l9,64l4,66l-25,-40l18,58l8,103l-103,-71l-115,-123l-71,-10l-11,-32l-57,-36l-13,-54l-36,-64l9,-47l-10,-44l12,-23" style="fill:#ebebeb;stroke:#000;stroke-width:2.5px;"/><path d="M286.953,229.953l5,156l17.599,16.296l69.401,57.704l163,84l47,-36l20,-29" style="fill:#ebebeb;stroke:#000;stroke-width:2.5px;"/><path d="M340.953,255.953l8,91l80,41l94,62l21,-122l-63,-63" style="fill:#ebebeb;stroke:#000;stroke-width:2.5px;"/><path d="M355.953,209.953l-67,19l51,26l71,44l41,42l51,36l2.523,-32.173l1.477,-18.827l-72,-60l5,-36" style="fill:#ebebeb;stroke:#000;stroke-width:2.5px;"/><path d="M355.953,208.953l30,73l49,-17l-79,-56Z" style="fill:#ebebeb;stroke:#000;stroke-width:2.5px;"/><path d="M506.953,325.953l37,3l-41,48" style="fill:none;stroke:#000;stroke-width:2.5px;"/><path d="M289.953,306.953l60,40l-58,39l31,106" style="fill:none;stroke:#000;stroke-width:2.5px;"/><path d="M443.953,229.953l62,21l-13,-45" style="fill:#ebebeb;stroke:#000;stroke-width:2.5px;"/><path d="M527.953,310.953l57,18l-26,-49" style="fill:#ebebeb;stroke:#000;stroke-width:2.5px;"/><path d="M544.953,328.953l24,26l-4,50l0,39l26,62" style="fill:#ebebeb;stroke:#000;stroke-width:2.5px;"/><path d="M410.953,298.953l-62,48" style="fill:#ebebeb;stroke:#000;stroke-width:2.5px;"/><path d="M410.953,298.953l-4,76" style="fill:#ebebeb;stroke:#000;stroke-width:2.5px;"/><path d="M451.953,340.953l18,74" style="fill:#ebebeb;stroke:#000;stroke-width:2.5px;"/><path d="M502.953,376.953l19,71" style="fill:#ebebeb;stroke:#000;stroke-width:2.5px;"/><path d="M479.953,262.953l26,-12" style="fill:#ebebeb;stroke:#000;stroke-width:2.5px;"/><path d="M441.953,229.953l39,33" style="fill:#ebebeb;stroke:#000;stroke-width:2.5px;"/><path d="M433.953,265.953l47,-2" style="fill:#ebebeb;stroke:#000;stroke-width:2.5px;"/><path d="M480.953,263.953l26,63" style="fill:#ebebeb;stroke:#000;stroke-width:2.5px;"/><path d="M434.953,264.953l18,77" style="fill:#ebebeb;stroke:#000;stroke-width:2.5px;"/><path d="M349.953,346.953l27,112" style="fill:#ebebeb;stroke:#000;stroke-width:2.5px;"/><path d="M430.953,389.953l12,102" style="fill:#ebebeb;stroke:#000;stroke-width:2.5px;"/><path d="M470.953,415.953l71,127" style="fill:#ebebeb;stroke:#000;stroke-width:2.5px;"/><path d="M522.953,450.953l67,57" style="fill:#ebebeb;stroke:#000;stroke-width:2.5px;"/><path d="M522.953,451.953l19,89" style="fill:#ebebeb;stroke:#000;stroke-width:2.5px;"/><path d="M537.953,362.953l27,39" style="fill:#ebebeb;stroke:#000;stroke-width:2.5px;"/><path d="M531.953,401.953l33,42" style="fill:#ebebeb;stroke:#000;stroke-width:2.5px;"/><path d="M506.953,249.953l53,30" style="fill:#ebebeb;stroke:#000;stroke-width:2.5px;"/><path d="M559.953,278.953l-33,31" style="fill:#ebebeb;stroke:#000;stroke-width:2.5px;"/><path d="M376.953,458.953l29,75" style="fill:#ebebeb;stroke:#000;stroke-width:2.5px;"/><path d="M442.953,491.953l77,166" style="fill:#ebebeb;stroke:#000;stroke-width:2.5px;"/><path d="M541.953,542.953l81,186" style="fill:#ebebeb;stroke:#000;stroke-width:2.5px;"/><path d="M590.953,505.953l7,63" style="fill:#ebebeb;stroke:#000;stroke-width:2.5px;"/><path d="M215.953,248.953l72,-18" style="fill:#ebebeb;stroke:#000;stroke-width:2.5px;"/><path d="M226.953,292.953l60,-62" style="fill:#ebebeb;stroke:#000;stroke-width:2.5px;"/><path d="M226.953,293.953l64,92" style="fill:#ebebeb;stroke:#000;stroke-width:2.5px;"/><path d="M252.953,402.953l46,12" style="fill:#ebebeb;stroke:#000;stroke-width:2.5px;"/><path d="M306.953,433.953l79,49" style="fill:#ebebeb;stroke:#000;stroke-width:2.5px;"/><path d="M393.953,501.953l70,37" style="fill:#ebebeb;stroke:#000;stroke-width:2.5px;"/><path d="M485.953,583.953l74,0" style="fill:#ebebeb;stroke:#000;stroke-width:2.5px;"/><path d="M559.953,583.953l37,-15" style="fill:#ebebeb;stroke:#000;stroke-width:2.5px;"/><path d="M569.953,355.953l48,30" style="fill:#ebebeb;stroke:#000;stroke-width:2.5px;"/><path d="M569.953,356.953l5,53" style="fill:#ebebeb;stroke:#000;stroke-width:2.5px;"/><path d="M404.953,535.953l9,46l-20,-21l11,-25Z" style="fill:#ebebeb;stroke:#000;stroke-width:2.5px;"/><path d="M404.453,535.953l-10.5,24l-79,-9l89.5,-15Z" style="fill:#ebebeb;stroke:#000;stroke-width:2.5px;"/></g><g id="Head-2" serif:id="Head 2"><path d="M212.953,112.953l56.626,-58.862l19.374,-20.138l67,-10l0,187l-69,19l-59,-2l-14,-35l-1,-80Z" style="fill:#ebebeb;stroke:#000;stroke-width:2.5px;"/><path d="M355.953,86.953c-21.667,-16.667 -65,-50 -65,-50l8.5,63l-47.5,-29l21.818,42c0,0 -40.545,0.667 -60.818,1" style="fill:#ebebeb;stroke:#000;stroke-width:2.5px;"/><path d="M324.135,140.453c10.606,23.5 31.818,70.5 31.818,70.5l-56.5,-55c0,0 -8,49.333 -12,74" style="fill:#ebebeb;stroke:#000;stroke-width:2.5px;"/><path d="M324.135,113.953c10.606,-8.667 21.212,-17.333 31.818,-26" style="fill:#ebebeb;stroke:#000;stroke-width:2.5px;"/><path d="M299.453,153.953l-71.5,74l46.818,-87.5l-59.818,52.5" style="fill:none;stroke:#000;stroke-width:2.5px;"/><path d="M274.953,140.953l-27,-26l-33,78" style="fill:none;stroke:#000;stroke-width:2.5px;"/><path d="M221.953,3.953l29,70l38,-39l-67,-31Z" style="fill:#ebebeb;stroke:#000;stroke-width:2.5px;"/><path d="M250.953,73.953l8,-30l30,-8" style="fill:none;stroke:#000;stroke-width:2.5px;"/><path d="M222.953,4.953l36,39" style="fill:#ebebeb;stroke:#000;stroke-width:2.5px;"/></g><g id="Head1"><path d="M498.953,112.953l-76,-79l-67,-10l0,187l69,19l59,-2l14,-35l1,-80Z" style="fill:#ebebeb;stroke:#000;stroke-width:2.5px;"/><path d="M355.953,86.953c21.667,-16.667 65,-50 65,-50l-8.5,63l47.5,-29l-21.818,42c0,0 40.545,0.667 60.818,1" style="fill:#ebebeb;stroke:#000;stroke-width:2.5px;"/><path d="M387.771,140.453c-10.606,23.5 -31.818,70.5 -31.818,70.5l56.5,-55c0,0 8,49.333 12,74" style="fill:#ebebeb;stroke:#000;stroke-width:2.5px;"/><path d="M387.771,113.953c-10.606,-8.667 -21.212,-17.333 -31.818,-26" style="fill:#ebebeb;stroke:#000;stroke-width:2.5px;"/><path d="M412.453,153.953l71.5,74l-46.818,-87.5l59.818,52.5" style="fill:#ebebeb;stroke:#000;stroke-width:2.5px;"/><path d="M436.953,140.953l27,-26l33,78" style="fill:none;stroke:#000;stroke-width:2.5px;"/><path d="M489.953,3.953l-29,70l-38,-39l67,-31Z" style="fill:#ebebeb;stroke:#000;stroke-width:2.5px;"/><path d="M460.953,73.953l-8,-30l-30,-8" style="fill:none;stroke:#000;stroke-width:2.5px;"/><path d="M488.953,4.953l-36,39" style="fill:#ebebeb;stroke:#000;stroke-width:2.5px;"/><path d="M324.953,138.953l31,-17l32,18" style="fill:none;stroke:#000;stroke-width:2.5px;"/></g><g id="Eyes"><path d="M412.453,99.953l-24.682,13.5l0,27l24.682,13.5l24.682,-13.5l0,-27l-24.682,-13.5Z" style="fill:#ebebeb;stroke:#000;stroke-width:2.5px;"/><path d="M407.706,122.319l-0.782,8.192l7.55,3.275l5.447,-6.168l-4.182,-7.087l-8.033,1.788Z" style="fill:#ebebeb;stroke:#000;stroke-width:2.5px;"/><path d="M299.453,99.953l24.682,13.5l0,27l-24.682,13.5l-24.682,-13.5l0,-27l24.682,-13.5Z" style="fill:#ebebeb;stroke:#000;stroke-width:2.5px;"/><path d="M304.199,122.319l0.782,8.192l-7.549,3.275l-5.447,-6.168l4.182,-7.087l8.032,1.788Z" style="fill:#ebebeb;stroke:#000;stroke-width:2.5px;"/></g></svg>