<svg id="logo" width="400px" height="400px" viewBox="0 0 1297 911" version="1.1" xmlns="http://www.w3.org/2000/svg" xmlns:xlink="http://www.w3.org/1999/xlink" xml:space="preserve" xmlns:serif="http://www.serif.com/" style="fill-rule:evenodd;clip-rule:evenodd;stroke-linejoin:round;stroke-miterlimit:1.41421;">
<path id="svg_1" class="logo-colorone" d="M404.333,129.167l-15.034,0l0,560.666c0,61.713 -19.444,113.281 -58.331,154.705c-19.444,20.289 -42.481,36.352 -69.11,48.187c-26.63,11.835 -57.698,17.753 -93.204,17.753c-41.424,0 -75.873,-9.088 -103.348,-27.263c-27.475,-18.176 -49.244,-36.141 -65.306,-53.894l101.446,-81.156c9.299,9.299 20.078,17.119 32.336,23.459c12.258,6.34 25.15,9.51 38.676,9.51c7.609,0 16.485,-1.479 26.63,-4.438c10.144,-2.959 19.866,-8.665 29.166,-17.119c9.299,-7.608 16.907,-18.387 22.825,-32.336c5.918,-13.949 8.876,-32.336 8.876,-55.161c2.344,-181.111 2.738,-362.079 1.32,-542.913l-145.229,0l-25,-129.167l269.988,0l43.299,129.167Z"/>
  <path id="svg_2" class="logo-colortwo" d="M699.973,781.134l0,-281.512l-73.548,0c-22.826,0 -41.001,3.17 -54.528,9.51c-13.526,6.341 -24.093,15.429 -31.702,27.264c-6.763,11.835 -11.412,26.418 -13.948,43.749c-2.537,17.33 -3.805,37.408 -3.805,60.233c0,22.825 1.268,42.903 3.805,60.234c2.536,17.33 7.608,32.336 15.217,45.016c16.062,23.671 46.496,35.506 91.301,35.506l67.208,0Zm129.344,-781.134l0,902.87l-207.965,0c-152.169,0 -228.253,-88.343 -228.253,-265.028c0,-53.259 8.242,-98.487 24.727,-135.684c16.485,-37.197 45.44,-67.208 86.863,-90.033l-139.488,-412.125l136.952,0l120.467,385.495l77.353,0l0,-385.495l129.344,0Z"/>
<path id="svg_3" class="logo-colorone" d="M961.828,121.735l0,281.513l73.549,0c22.825,0 41.001,-3.17 54.527,-9.511c13.526,-6.34 24.093,-15.428 31.702,-27.263c6.763,-11.836 11.412,-26.418 13.949,-43.749c2.536,-17.33 3.804,-37.408 3.804,-60.233c0,-22.826 -1.268,-42.904 -3.804,-60.234c-2.537,-17.33 -7.609,-32.336 -15.217,-45.017c-16.063,-23.67 -46.496,-35.506 -91.302,-35.506l-67.208,0Zm-129.343,781.135l0,-902.87l207.964,0c152.169,0 228.253,88.343 228.253,265.028c0,53.259 -8.242,98.487 -24.727,135.684c-16.485,37.197 -45.439,67.208 -86.863,90.033l139.488,412.125l-136.952,0l-120.467,-385.495l-77.353,0l0,385.495l-129.343,0Z"/>
</svg>
